<svg xmlns="http://www.w3.org/2000/svg" width="12.055" height="14.9" viewBox="0 0 12.055 14.9">
    <g opacity="0.6">
        <g>
            <g>
                <path d="M59.859 2.591a6.016 6.016 0 0 0-9.891 0 6.017 6.017 0 0 0-.7 5.544 4.739 4.739 0 0 0 .873 1.442l4.376 5.14a.521.521 0 0 0 .793 0l4.375-5.139a4.743 4.743 0 0 0 .873-1.44 6.018 6.018 0 0 0-.699-5.547zm-.276 5.182A3.716 3.716 0 0 1 58.9 8.9l-3.98 4.674L50.931 8.9a3.719 3.719 0 0 1-.688-1.129 4.977 4.977 0 0 1 .582-4.586 4.974 4.974 0 0 1 8.177 0 4.978 4.978 0 0 1 .581 4.588z" transform="translate(-48.886)"/>
            </g>
        </g>
        <g>
            <g>
                <path d="M158.672 106.219a2.918 2.918 0 1 0 2.918 2.918 2.921 2.921 0 0 0-2.918-2.918zm0 4.793a1.876 1.876 0 1 1 1.876-1.876 1.878 1.878 0 0 1-1.876 1.876z" transform="translate(3.11 3.091) translate(-155.754 -106.219)"/>
            </g>
        </g>
    </g>
</svg>
